<svg xmlns="http://www.w3.org/2000/svg" width="36" height="45" viewBox="0 0 36 45" fill="none">
  <mask id="mask0_1_419" style="mask-type:luminance" maskUnits="userSpaceOnUse" x="0" y="0" width="36" height="45">
    <path d="M0.544189 0.5H35.4559V44.5H0.544189V0.5Z" fill="white"/>
  </mask>
  <g mask="url(#mask0_1_419)">
    <mask id="mask1_1_419" style="mask-type:luminance" maskUnits="userSpaceOnUse" x="0" y="0" width="36" height="45">
      <path d="M12.218 1.5103C14.0062 0.900245 16.0526 0.5 18.0538 0.5C20.0572 0.5 21.9831 0.843221 23.7595 1.45327C23.7971 1.47264 23.8348 1.47264 23.8724 1.49093C30.5399 3.93221 35.4516 10.3781 35.5462 17.9311V44.4893H0.544189V17.9505C0.638871 10.3393 5.47408 3.89455 12.218 1.5103Z" fill="white"/>
    </mask>
    <g mask="url(#mask1_1_419)">
      <path d="M12.218 1.5103C14.0062 0.900245 16.0526 0.5 18.0538 0.5C20.0572 0.5 21.9831 0.843221 23.7595 1.45327C23.7971 1.47264 23.8348 1.47264 23.8724 1.49093C30.5399 3.93221 35.4516 10.3781 35.5462 17.9311V44.4893H0.544189V17.9505C0.638871 10.3393 5.47409 3.89455 12.218 1.5103Z" stroke="#492D28" stroke-width="2"/>
    </g>
  </g>
  <mask id="mask2_1_419" style="mask-type:luminance" maskUnits="userSpaceOnUse" x="6" y="12" width="24" height="21">
    <path d="M6.13898 12.3287H29.8954V32.7799H6.13898V12.3287Z" fill="white"/>
  </mask>
  <g mask="url(#mask2_1_419)">
    <path d="M14.8691 32.2872C14.5022 32.2872 14.202 32.299 13.8911 32.2323C13.5242 32.1538 13.224 31.9762 12.9787 31.6868C12.7904 31.4641 12.6344 31.2306 12.4784 30.9864C12.3224 30.7529 12.1341 30.5862 11.878 30.4743C11.2658 30.2193 10.7548 29.8298 10.3093 29.3402C9.90909 28.9066 9.65409 28.4063 9.65409 27.7941C9.65409 27.6274 9.62074 27.4713 9.62074 27.3046C9.6315 27.0937 9.52068 26.971 9.33132 26.8936C9.04189 26.7935 8.74171 26.7376 8.44153 26.7042C7.70774 26.616 7.18484 26.2265 6.82871 25.6035C6.68454 25.3475 6.59524 25.0806 6.606 24.7804C6.606 24.6696 6.58448 24.5803 6.52853 24.4803C6.2391 23.9133 6.13904 23.3129 6.30581 22.7007C6.45106 22.167 6.43923 21.6215 6.46182 21.0879C6.48442 20.7317 6.51777 20.3874 6.58448 20.0431C6.6727 19.587 6.87283 19.1749 7.20636 18.8413C7.52914 18.5186 7.79597 18.1635 8.04128 17.7848C8.46412 17.1177 9.04189 16.6174 9.80903 16.3506C9.9758 16.2946 10.0877 16.2053 10.1544 16.0385C10.4761 15.3489 11.0657 15.0713 11.7887 15.0046C12.034 14.982 12.289 14.9938 12.5343 15.0272C12.6559 15.0487 12.7011 15.0046 12.7345 14.8938C12.7571 14.7603 12.8119 14.6377 12.8571 14.515C13.124 13.8038 13.6458 13.4359 14.3914 13.3692C14.7142 13.3358 15.0477 13.3477 15.3587 13.4359C15.5706 13.5026 15.7148 13.4359 15.8708 13.3025C16.6272 12.602 17.5385 12.346 18.5509 12.3793C18.8619 12.3912 19.1513 12.4912 19.4181 12.6472C19.7409 12.8248 20.0744 12.8807 20.4413 12.8022C20.72 12.7473 21.0083 12.7139 21.287 12.6913C21.8099 12.6472 22.2876 12.7914 22.7212 13.0808C23.3549 13.5026 23.8671 14.0373 24.2006 14.7152C24.2673 14.8378 24.334 14.8938 24.4674 14.9271C24.8903 15.0272 25.2798 15.1939 25.68 15.3715C25.7908 15.4274 25.9027 15.4823 26.0028 15.5608C26.558 15.9837 27.0142 16.4947 27.3595 17.0951C27.4811 17.3071 27.5812 17.5179 27.593 17.7622C27.6038 17.8848 27.6597 17.9408 27.7705 17.9849C28.004 18.0634 28.2267 18.185 28.4269 18.3303C29.1606 18.8187 29.5275 19.5202 29.6061 20.3874C29.6276 20.5876 29.5835 20.7877 29.5394 20.9878C29.4834 21.1998 29.5275 21.3665 29.6061 21.5667C29.817 22.0444 29.9504 22.5565 29.917 23.0902C29.8837 23.6346 29.6276 24.0467 29.2058 24.3802C28.9939 24.547 28.7604 24.6696 28.5162 24.7912C28.4161 24.8472 28.3042 24.8913 28.2267 24.9806C27.9825 25.27 27.6597 25.4249 27.3036 25.5142C27.1261 25.5594 27.0368 25.6595 26.9808 25.8263C26.8474 26.2373 26.6032 26.5826 26.247 26.8269C26.0695 26.9495 26.0136 27.1045 26.0136 27.3164C26.0136 27.5714 26.0243 27.8275 25.9802 28.0835C25.8801 28.6064 25.6348 29.0508 25.2346 29.4069C25.1679 29.4736 25.1012 29.5403 25.0237 29.5963C24.7343 29.7857 24.5234 30.0191 24.4449 30.3742C24.4007 30.5743 24.2447 30.7411 24.0898 30.8863C23.3334 31.5868 22.477 32.0204 21.4204 32.0096C21.0417 32.0096 20.6641 31.9537 20.2746 32.0096C19.8636 32.0655 19.4407 32.1323 19.0286 32.1538C18.9178 32.1538 18.807 32.2205 18.7177 32.2764C18.2733 32.5325 17.7946 32.6767 17.2835 32.7434C16.9155 32.7875 16.5486 32.7326 16.2269 32.5659C15.7707 32.3205 15.3038 32.2097 14.8691 32.2872Z" fill="#492D28"/>
  </g>
  <path d="M6.97287 23.2343C6.96211 23.0342 6.99547 22.8233 7.06218 22.6114C7.13964 22.3564 7.173 22.0885 7.173 21.8216C7.15148 21.3213 7.19559 20.8318 7.27306 20.3433C7.32901 19.942 7.48502 19.5869 7.77444 19.3083C8.09614 18.9973 8.36297 18.652 8.58569 18.2743C8.95258 17.6739 9.44213 17.2285 10.121 17.0069C10.4212 16.9068 10.6439 16.7282 10.7655 16.4388C10.9549 15.9718 11.3444 15.8051 11.8006 15.7276C11.9447 15.705 12.0889 15.705 12.2342 15.7276C12.5343 15.7835 12.8012 15.6942 13.068 15.5942C13.2348 15.5382 13.3456 15.4382 13.3789 15.2273C13.4015 15.0272 13.4682 14.827 13.5683 14.6377C13.7243 14.3482 13.9578 14.1815 14.2806 14.1148C14.5915 14.0481 14.9143 14.0481 15.2145 14.1374C15.6481 14.2589 16.015 14.1707 16.3377 13.8372C16.8606 13.3143 17.5277 13.1357 18.24 13.0808C18.5176 13.0582 18.7952 13.1142 19.0405 13.2476C19.5967 13.5704 20.1745 13.6037 20.7867 13.4585C20.975 13.4143 21.1869 13.3917 21.3752 13.381C21.7432 13.3584 22.0767 13.4692 22.3769 13.6812C22.9213 14.0588 23.3668 14.515 23.6336 15.1272C23.7563 15.394 23.9338 15.5382 24.234 15.5942C24.6568 15.6716 25.0463 15.8502 25.4465 16.0278C25.4906 16.0504 25.5348 16.0719 25.5681 16.1052C26.0803 16.484 26.4913 16.9509 26.8033 17.5179C26.8807 17.6513 26.9141 17.7955 26.9141 17.9515C26.9141 18.3184 26.9926 18.4411 27.3477 18.5637C27.6145 18.6638 27.8824 18.7638 28.1159 18.9414C28.7604 19.4202 29.0272 20.0539 28.883 20.8436C28.8163 21.1879 28.8163 21.4881 28.9939 21.8109C29.1725 22.1337 29.2499 22.4898 29.2725 22.8567C29.294 23.2569 29.1273 23.5797 28.8163 23.8239C28.627 23.9681 28.4161 24.08 28.2041 24.1908C28.0707 24.2575 27.9265 24.3242 27.8265 24.4469C27.6479 24.6696 27.4144 24.7912 27.1476 24.8471C26.7473 24.9364 26.5139 25.1581 26.403 25.5476C26.3137 25.8703 26.1136 26.1264 25.836 26.3147C25.5014 26.5374 25.368 26.8494 25.3798 27.2497C25.3906 27.4165 25.3798 27.594 25.368 27.7607C25.3346 28.1836 25.1797 28.5612 24.8569 28.8507C24.6902 29.0067 24.5116 29.1508 24.334 29.2961C24.1339 29.451 23.9897 29.6512 23.923 29.8965C23.8671 30.1633 23.7111 30.3634 23.5002 30.5302C22.8105 31.0864 22.0541 31.3974 21.1536 31.2973C20.72 31.2532 20.2971 31.2973 19.8743 31.364C19.6516 31.3974 19.4181 31.4307 19.1954 31.4426C18.9178 31.4533 18.6736 31.52 18.4401 31.6642C18.1733 31.831 17.872 31.931 17.5611 31.9988C17.1834 32.087 16.8155 32.0763 16.4712 31.8977C16.0268 31.6642 15.5588 31.5867 15.0585 31.6093C14.769 31.6201 14.4689 31.6427 14.1687 31.5867C13.9018 31.5426 13.6791 31.42 13.5242 31.1973C13.3789 30.9971 13.2348 30.797 13.1014 30.5861C12.8905 30.2634 12.6118 30.0299 12.2557 29.8857C11.722 29.6737 11.2884 29.3294 10.8989 28.9066C10.5772 28.5612 10.3986 28.1728 10.4212 27.694C10.4212 27.5273 10.3986 27.3713 10.3879 27.2045C10.3545 26.7494 10.0984 26.4707 9.6982 26.3039C9.36466 26.1598 9.00853 26.0931 8.64164 26.0597C8.1295 26.0038 7.7626 25.7595 7.51837 25.3141C7.41831 25.1473 7.36236 24.9698 7.3742 24.7697C7.38495 24.5911 7.3516 24.4243 7.2623 24.2801C7.02882 23.9466 6.97287 23.6131 6.97287 23.2343Z" fill="#F4F6F1"/>
  <path d="M19.0738 25.9812C19.0845 26.3373 18.8844 26.56 18.5616 26.7268C18.1732 26.9269 17.7945 26.9269 17.4169 26.716C17.405 26.716 17.3943 26.7042 17.3943 26.7042C17.0941 26.5267 17.0048 26.2039 16.9714 25.9037C16.9381 25.6369 17.1608 25.4593 17.405 25.3582C17.7052 25.2248 18.0054 25.1032 18.34 25.1699C18.4734 25.1914 18.595 25.2366 18.7069 25.3141C18.9619 25.4593 19.1071 25.6702 19.0738 25.9812ZM15.0143 24.7245C15.4587 24.6696 15.704 24.2801 15.5921 23.8465C15.4813 23.4796 15.2478 23.2451 14.8691 23.145C14.4807 23.045 14.0578 23.2903 13.947 23.6798C13.8017 24.1801 14.0019 24.5803 14.4473 24.703C14.5581 24.7363 14.6689 24.7245 14.7357 24.7363C14.8691 24.7245 14.9369 24.7245 15.0143 24.7245ZM20.6532 23.6798C20.4198 23.9573 20.4531 24.3135 20.7307 24.5362C20.9201 24.6911 21.1417 24.7804 21.387 24.7912C21.7432 24.8138 22.0875 24.5362 22.1768 24.1682C22.2435 23.8799 22.0541 23.5797 21.7539 23.4344C21.6313 23.3796 21.4979 23.3796 21.2977 23.3677C21.0643 23.3462 20.8308 23.4678 20.6532 23.6798Z" fill="#492D28"/>
  <path d="M9.93132 40.4019C9.81607 40.3942 9.70081 40.3742 9.58709 40.3404C9.47184 40.3035 9.36273 40.2605 9.2613 40.2113C9.16295 40.1621 9.08304 40.1037 9.02157 40.0331C8.9601 39.9639 8.92937 39.8948 8.92937 39.8241C8.92937 39.7503 8.95703 39.6934 9.01543 39.6519C9.07229 39.6074 9.14605 39.5782 9.23672 39.5659C9.33046 39.5536 9.43649 39.5505 9.55636 39.5536C9.67469 39.5582 9.79916 39.5597 9.93132 39.5597C10.1034 39.569 10.2894 39.572 10.4907 39.572C10.6951 39.572 10.9087 39.572 11.13 39.572C11.1254 39.4245 11.1254 39.2678 11.13 39.0987C11.1377 38.9312 11.1484 38.7653 11.1607 38.6008C11.173 38.4333 11.1884 38.272 11.2099 38.1152C11.2345 37.9554 11.2591 37.8186 11.2836 37.7034C11.3113 37.5804 11.3697 37.4759 11.4558 37.3899C11.5418 37.3007 11.6494 37.2423 11.7816 37.2178C11.863 37.2024 11.9352 37.2239 11.9967 37.2854C12.0582 37.3468 12.092 37.4513 12.1012 37.5989C12.1089 37.7064 12.115 37.8386 12.1196 37.9984C12.1227 38.1552 12.1289 38.3227 12.1381 38.5025C12.1458 38.6792 12.1519 38.8575 12.1565 39.0373C12.1642 39.2186 12.1765 39.3846 12.1934 39.5352C12.3686 39.5321 12.5346 39.5213 12.6913 39.5044C12.8511 39.4891 12.9956 39.4675 13.1277 39.443C13.2138 39.4307 13.2829 39.4184 13.3367 39.4061C13.389 39.3938 13.4428 39.3538 13.4966 39.2831C13.6594 39.0834 13.8054 38.9988 13.933 39.0311C14.0636 39.0603 14.1189 39.2278 14.099 39.5352C14.0897 39.6458 14.0759 39.7472 14.0559 39.8364C14.039 39.9224 14.0037 40.0023 13.9514 40.0761C13.9022 40.1498 13.8316 40.2098 13.7424 40.2543C13.6564 40.3005 13.535 40.3343 13.3798 40.3588C13.1339 40.388 12.8634 40.4111 12.5684 40.4265C12.2733 40.4434 11.9721 40.4541 11.6648 40.4572C11.3574 40.4618 11.0516 40.4603 10.7489 40.4511C10.4492 40.4434 10.1772 40.4265 9.93132 40.4019ZM10.0481 38.7791C9.98664 38.7545 9.9513 38.7038 9.94362 38.6254C9.93439 38.544 9.93439 38.4564 9.94362 38.3611C9.9682 38.0906 9.98357 37.8171 9.99279 37.5374C10.0051 37.2546 10.0066 36.9949 9.99894 36.7567C9.99433 36.6184 9.97589 36.5155 9.94362 36.4494C9.91442 36.3802 9.83451 36.3449 9.70388 36.3449C9.60092 36.3449 9.48413 36.348 9.35351 36.351C9.22135 36.351 9.123 36.3556 9.05845 36.3633C8.9263 36.3802 8.8218 36.3756 8.74496 36.351C8.66659 36.3234 8.61434 36.2558 8.58514 36.1482C8.54518 36.0099 8.56363 35.89 8.64046 35.7917C8.7173 35.6902 8.83255 35.6257 8.98469 35.6011C9.25516 35.5565 9.56558 35.5458 9.91903 35.5704C10.1649 35.5873 10.3631 35.6318 10.5153 35.7056C10.6659 35.7763 10.7796 35.8685 10.8534 35.9822C10.9302 36.0929 10.9794 36.2189 11.0009 36.3572C11.0209 36.4924 11.0193 36.6338 10.9947 36.7813C10.9579 37.0272 10.9025 37.2977 10.8288 37.5927C10.755 37.8847 10.6751 38.1321 10.589 38.3365C10.5107 38.5378 10.42 38.6684 10.3186 38.7299C10.2156 38.7914 10.125 38.8083 10.0481 38.7791ZM12.9802 38.5455C12.9187 38.5209 12.8834 38.4702 12.8757 38.3918C12.8665 38.3104 12.8665 38.2228 12.8757 38.1275C12.8957 37.8616 12.9126 37.5896 12.9249 37.31C12.9372 37.0272 12.9387 36.7675 12.931 36.5293C12.9218 36.391 12.9018 36.2865 12.8696 36.2158C12.8404 36.1467 12.7605 36.1113 12.6298 36.1113C12.5315 36.1113 12.4162 36.1144 12.2856 36.1175C12.1534 36.1221 12.0536 36.1282 11.9844 36.1359C11.8522 36.1482 11.7477 36.142 11.6709 36.1175C11.5971 36.0898 11.5434 36.0222 11.5111 35.9146C11.4742 35.7763 11.4942 35.6564 11.5726 35.5581C11.6494 35.4567 11.7646 35.3952 11.9168 35.3737C12.1873 35.3291 12.4977 35.3168 12.8511 35.3368C13.097 35.3537 13.2937 35.3983 13.4412 35.472C13.5918 35.5458 13.7071 35.638 13.7855 35.7486C13.8623 35.8593 13.9099 35.9853 13.9268 36.1236C13.9468 36.2634 13.9468 36.4048 13.9268 36.5477C13.8853 36.7936 13.8285 37.0641 13.7547 37.3591C13.684 37.6511 13.6072 37.9001 13.5211 38.1091C13.4428 38.3058 13.3521 38.4379 13.2507 38.5025C13.1477 38.5639 13.057 38.5793 12.9802 38.5455Z" fill="#492D28"/>
  <path d="M15.6995 38.5578C15.5842 38.5501 15.469 38.5302 15.3552 38.4963C15.24 38.4595 15.1309 38.4164 15.0294 38.3673C14.9311 38.3181 14.8512 38.2597 14.7897 38.189C14.7282 38.1198 14.6975 38.0507 14.6975 37.98C14.6975 37.9032 14.7252 37.8432 14.7836 37.8017C14.8404 37.7618 14.9142 37.7341 15.0049 37.7218C15.0986 37.7095 15.2046 37.7065 15.3245 37.7095C15.4428 37.7142 15.5673 37.7157 15.6995 37.7157C15.9161 37.7157 16.1636 37.7188 16.4432 37.7218C16.726 37.7264 17.0118 37.7264 17.3038 37.7218C17.5943 37.7188 17.8786 37.7065 18.1582 37.685C18.4364 37.665 18.6823 37.6358 18.8959 37.5989C18.9819 37.5835 19.0511 37.5712 19.1049 37.562C19.1571 37.5497 19.2109 37.5098 19.2647 37.4391C19.4276 37.2393 19.5736 37.1548 19.7011 37.187C19.8317 37.2162 19.8871 37.3838 19.8671 37.6911C19.8579 37.7987 19.844 37.897 19.8241 37.9862C19.8072 38.0768 19.7718 38.1583 19.7196 38.232C19.6704 38.3027 19.5997 38.3611 19.5106 38.4103C19.4245 38.4564 19.3031 38.4887 19.1479 38.5086C19.0204 38.5255 18.8867 38.5394 18.7483 38.5517C18.6085 38.564 18.461 38.5793 18.3058 38.5947C18.3012 38.7914 18.2935 38.982 18.2812 39.1664C18.2689 39.3508 18.2443 39.5336 18.2074 39.7134C18.1905 39.7795 18.1659 39.8518 18.1337 39.9286C18.1045 40.007 18.0614 40.0792 18.0046 40.1437C17.9462 40.2098 17.8709 40.2651 17.7771 40.3097C17.6865 40.3512 17.5758 40.3712 17.4452 40.3712C17.3499 40.3712 17.2746 40.345 17.2178 40.2913C17.1594 40.2344 17.1317 40.1407 17.1317 40.0085C17.1394 39.8118 17.1409 39.5997 17.1378 39.3692C17.1332 39.1356 17.1225 38.8836 17.1071 38.6131C16.852 38.6131 16.6046 38.6101 16.3633 38.6008C16.1205 38.5886 15.8992 38.5747 15.6995 38.5578ZM15.7363 36.6891C15.6042 36.7352 15.4751 36.7506 15.3491 36.7383C15.2215 36.726 15.1186 36.6891 15.0417 36.6277C14.9803 36.5754 14.9511 36.5017 14.9557 36.4064C14.9588 36.308 15.0387 36.2066 15.1954 36.099C15.5642 35.8286 15.9023 35.5443 16.2097 35.2446C16.517 34.9465 16.832 34.6115 17.1563 34.2427C17.2792 34.1044 17.3991 34.0214 17.519 33.9968C17.6373 33.9691 17.728 33.9814 17.7894 34.0337C17.8417 34.0705 17.877 34.1382 17.8939 34.2365C17.9093 34.3318 17.8893 34.4563 17.8325 34.6115C17.7341 34.9035 17.6188 35.1616 17.4882 35.386C17.7126 35.4075 17.94 35.4398 18.1705 35.4843C18.3995 35.5258 18.5916 35.5643 18.7483 35.6011C18.8467 35.6349 18.9281 35.6857 18.9942 35.7548C19.0588 35.8255 19.1064 35.9023 19.1356 35.9884C19.1679 36.0714 19.1848 36.1544 19.1848 36.2404C19.1848 36.3234 19.1756 36.391 19.1602 36.4433C19.1141 36.6077 19.0403 36.7014 18.9389 36.726C18.8406 36.7475 18.7022 36.7183 18.5271 36.64C18.3949 36.5785 18.2013 36.4924 17.9431 36.3818C17.6849 36.2712 17.3407 36.1636 16.9104 36.056C16.7337 36.2005 16.5477 36.3234 16.351 36.4248C16.1543 36.5232 15.9484 36.6123 15.7363 36.6891ZM17.5497 41.5206C17.857 41.4838 18.0015 41.576 17.9861 41.7973C17.9861 41.8987 17.9308 41.9755 17.8202 42.0247C17.7126 42.0739 17.6235 42.1061 17.5497 42.123C17.2085 42.1753 16.9043 42.1845 16.6338 42.1476C16.3664 42.1138 16.1497 42.0278 15.9822 41.8895C15.8178 41.7542 15.7118 41.5575 15.6626 41.2994C15.6165 41.0412 15.6503 40.7123 15.7609 40.3097C15.764 40.2728 15.7809 40.2175 15.8101 40.1437C15.8378 40.07 15.8747 40.0008 15.9208 39.9347C15.9653 39.8702 16.0222 39.821 16.0929 39.7872C16.162 39.7503 16.2465 39.7534 16.3449 39.7934C16.7091 39.9332 16.8612 40.1714 16.7998 40.5064C16.766 40.6754 16.7506 40.826 16.7506 40.9613C16.7506 41.0965 16.7752 41.2102 16.8244 41.2994C16.8735 41.3854 16.955 41.4484 17.0702 41.4899C17.1886 41.5345 17.3484 41.5452 17.5497 41.5206Z" fill="#492D28"/>
  <path d="M26.9504 38.6131C26.9412 38.7283 26.9089 38.8451 26.8521 38.9635C26.7937 39.0787 26.7245 39.1878 26.6431 39.2893C26.5601 39.3876 26.4725 39.4675 26.3788 39.529C26.2881 39.5905 26.2082 39.6212 26.139 39.6212C26.056 39.6212 25.9946 39.5935 25.9546 39.5351C25.9177 39.4737 25.8931 39.3984 25.8809 39.3077C25.8686 39.214 25.8639 39.1079 25.8686 38.9881C25.8716 38.8697 25.8747 38.7453 25.8747 38.6131V38.2689C25.8378 38.2612 25.8009 38.255 25.7641 38.2504C25.7303 38.2473 25.6964 38.2412 25.6596 38.232C25.5489 38.2197 25.4352 38.1982 25.3215 38.1644C25.3215 38.3042 25.3215 38.4456 25.3215 38.5885C25.3215 38.7283 25.3169 38.8682 25.3092 39.0065C25.3092 39.1218 25.2877 39.2385 25.2477 39.3569C25.2062 39.4767 25.1555 39.5874 25.094 39.6888C25.0326 39.7872 24.9619 39.8717 24.885 39.9408C24.8067 40.0115 24.7329 40.0453 24.6638 40.0453C24.5808 40.0546 24.5193 40.0315 24.4793 39.9777C24.4425 39.9255 24.4133 39.8532 24.3933 39.7626C24.3718 39.6688 24.3595 39.5597 24.3564 39.4368C24.3518 39.3138 24.3503 39.1878 24.3503 39.0557C24.338 38.6177 24.3165 38.1613 24.2888 37.6849C24.2642 37.2054 24.2043 36.7552 24.1105 36.3326C24.0936 36.2465 24.0567 36.1789 23.9999 36.1297C23.9415 36.0806 23.8831 36.0314 23.8216 35.9822C23.608 35.8393 23.5143 35.6979 23.5389 35.5581C23.5665 35.4198 23.7386 35.3537 24.0552 35.3614C24.1536 35.3614 24.2596 35.3706 24.3749 35.3859C24.4886 35.3982 24.5977 35.4274 24.7006 35.472C24.8067 35.5135 24.8989 35.5796 24.9773 35.6687C25.0541 35.7548 25.1033 35.8762 25.1248 36.0314C25.1647 36.2404 25.1955 36.4494 25.217 36.6584C25.2416 36.8643 25.2615 37.0733 25.2785 37.2854C25.3676 37.2731 25.4644 37.2608 25.5674 37.2485C25.6734 37.2362 25.7764 37.227 25.8747 37.2177C25.8655 36.9888 25.8532 36.7629 25.8378 36.5416C25.8255 36.3172 25.7979 36.0959 25.7579 35.8777C25.7456 35.7963 25.7303 35.7302 25.7149 35.681C25.698 35.6287 25.6596 35.5704 25.5981 35.5089C25.4905 35.4351 25.4152 35.3598 25.3707 35.2814C25.3292 35.2046 25.3184 35.137 25.3399 35.0786C25.3599 35.0217 25.4106 34.9772 25.4936 34.9434C25.5797 34.9065 25.698 34.8973 25.8501 34.9126C25.9515 34.9219 26.0607 34.9341 26.1759 34.9495C26.2896 34.9618 26.3972 34.9956 26.4955 35.0479C26.597 35.097 26.6861 35.1693 26.7599 35.263C26.8336 35.3537 26.8797 35.4751 26.9012 35.6257C26.9627 36.1174 26.995 36.6138 26.9996 37.1132C27.0027 37.6142 26.9873 38.1137 26.9504 38.6131ZM21.7685 39.5843C21.4689 39.5397 21.2491 39.4168 21.1108 39.2155C21.0401 39.1141 20.9894 38.9804 20.9571 38.8159C20.9279 38.653 20.9095 38.4748 20.9018 38.2812C20.8926 38.0891 20.8972 37.8939 20.9141 37.6972C20.9295 37.5005 20.9571 37.3268 20.994 37.1747C21.0186 37.0733 21.0616 36.9842 21.1231 36.9104C21.1846 36.8336 21.2537 36.769 21.3321 36.7198C21.4136 36.6676 21.4981 36.6276 21.5841 36.603C21.6702 36.5754 21.744 36.5569 21.8054 36.5477C21.9191 36.5354 21.9975 36.5785 22.039 36.6768C22.079 36.7752 22.0774 36.9211 22.0329 37.1132C21.9622 37.4298 21.9191 37.7218 21.9038 37.9923C21.8915 38.2627 21.8946 38.4825 21.9161 38.65C21.9314 38.7575 21.9606 38.8313 22.0021 38.8713C22.0467 38.9081 22.1404 38.9358 22.2849 38.9512C22.354 38.9635 22.4509 38.9681 22.5738 38.9635C22.6967 38.9558 22.8212 38.9435 22.9488 38.9266C23.0748 38.9112 23.1946 38.8959 23.3053 38.8836C23.419 38.8682 23.4989 38.8559 23.545 38.8467C23.651 38.8313 23.7417 38.8159 23.8155 38.8036C23.8892 38.7914 23.9169 38.8282 23.9015 38.9143C23.8923 38.9512 23.8662 39.0111 23.8216 39.0926C23.7755 39.1755 23.7141 39.2339 23.6372 39.2708C23.522 39.3246 23.376 39.3753 23.2008 39.4245C23.0287 39.4706 22.8535 39.5075 22.6783 39.5351C22.5016 39.5597 22.3295 39.5782 22.1619 39.5905C21.9975 39.6028 21.8669 39.6012 21.7685 39.5843Z" fill="#492D28"/>
  <path d="M9.84259 10.9468C9.89962 10.9899 9.93405 11.0404 9.94588 11.0975C9.95987 11.1523 9.94373 11.2083 9.89854 11.2653C9.86411 11.3116 9.81785 11.3428 9.76082 11.36C9.70272 11.3772 9.64032 11.388 9.57146 11.3901C9.50475 11.3901 9.43912 11.3858 9.37349 11.3772C9.31001 11.3665 9.25514 11.3546 9.20995 11.3428C9.08944 11.3234 8.97002 11.3019 8.85274 11.2782C8.73869 11.2556 8.62249 11.2309 8.50414 11.2051L8.47832 11.4676C8.53857 11.5139 8.59452 11.5623 8.64616 11.6139C8.69781 11.6656 8.75053 11.7172 8.8054 11.7688C8.84521 11.8033 8.88502 11.8442 8.9259 11.8894C8.96571 11.9324 8.99907 11.9797 9.02489 12.0314C9.05071 12.0809 9.0647 12.1336 9.06793 12.1906C9.07008 12.2487 9.05179 12.3014 9.01198 12.3498C8.97432 12.3993 8.93451 12.4305 8.89147 12.4445C8.85059 12.4596 8.80755 12.465 8.76236 12.4617C8.71933 12.4596 8.67629 12.4478 8.63325 12.4273C8.58806 12.4047 8.54503 12.3778 8.50414 12.3455L8.48262 12.3283C8.36212 12.2369 8.24807 12.139 8.13832 12.0357C8.02643 11.9302 7.91238 11.828 7.79403 11.7301C7.63694 11.6042 7.48201 11.4783 7.32923 11.3514C7.17429 11.2255 7.02259 11.0953 6.87304 10.9598C6.83861 10.9318 6.80848 10.8995 6.78266 10.8651C6.75468 10.8285 6.73424 10.7898 6.72241 10.7489C6.71165 10.7058 6.70842 10.6649 6.7138 10.6241C6.72025 10.581 6.73854 10.5401 6.76975 10.4993C6.81924 10.4369 6.87734 10.4078 6.9462 10.4132C7.01291 10.4164 7.08284 10.4347 7.15708 10.4691C7.22917 10.5036 7.29803 10.5487 7.36366 10.6025C7.42714 10.6542 7.47986 10.6962 7.52289 10.7274C7.64985 10.8253 7.77466 10.9253 7.89732 11.0286C7.89517 10.9339 7.88333 10.8349 7.86289 10.7317C7.84352 10.6284 7.81555 10.5294 7.78112 10.4347C7.76713 10.3831 7.74023 10.3142 7.69935 10.2281C7.65631 10.1399 7.61973 10.0517 7.58745 9.9656C7.55302 9.87737 7.53043 9.7913 7.51859 9.70737C7.50783 9.6213 7.52289 9.55136 7.56593 9.49649C7.6122 9.43624 7.66277 9.40611 7.71656 9.40611C7.76821 9.40396 7.822 9.42225 7.8758 9.46206C7.95972 9.52554 8.03396 9.60301 8.09959 9.69446C8.16307 9.78376 8.21902 9.88167 8.26744 9.98712C8.31693 10.0904 8.35781 10.1969 8.39224 10.3056C8.42452 10.4153 8.44604 10.5186 8.4568 10.6155C8.59775 10.6305 8.73439 10.6488 8.86565 10.6714C9.00014 10.6951 9.13679 10.7187 9.2745 10.7446C9.31969 10.751 9.36918 10.7607 9.42083 10.7747C9.47247 10.7865 9.52197 10.8005 9.57146 10.8177C9.6231 10.8328 9.67152 10.8511 9.71779 10.8737C9.76297 10.8973 9.80494 10.921 9.84259 10.9468Z" fill="#492D28"/>
  <path d="M11.5277 9.45003C11.5761 9.50167 11.6009 9.55762 11.6009 9.61787C11.603 9.67597 11.5772 9.72762 11.5234 9.77281C11.4804 9.81369 11.4287 9.83629 11.3685 9.84167C11.3082 9.84489 11.2447 9.84059 11.1791 9.82875C11.1124 9.818 11.0478 9.80078 10.9854 9.77711C10.922 9.75129 10.8703 9.72869 10.8305 9.70825C10.7186 9.66306 10.6078 9.61787 10.4991 9.57484C10.3894 9.52965 10.2807 9.48231 10.172 9.43281L10.0903 9.68243C10.1419 9.74053 10.186 9.79863 10.2237 9.85888C10.2635 9.91913 10.3065 9.98154 10.3528 10.0439C10.3808 10.0848 10.4109 10.13 10.4432 10.1817C10.4744 10.2333 10.497 10.2882 10.512 10.3452C10.526 10.4001 10.5292 10.456 10.5206 10.513C10.512 10.5679 10.483 10.6153 10.4346 10.6551C10.3883 10.696 10.3442 10.7185 10.3011 10.7239C10.2581 10.7304 10.2151 10.7272 10.172 10.7153C10.129 10.7013 10.0881 10.6798 10.0472 10.6508C10.0074 10.6196 9.96976 10.5851 9.93533 10.5475L9.91811 10.526C9.81805 10.4119 9.72445 10.2925 9.63837 10.1687C9.5523 10.0461 9.46192 9.92344 9.36724 9.80293C9.24136 9.648 9.11547 9.49307 8.98851 9.33813C8.86263 9.1832 8.7389 9.02611 8.6184 8.86472C8.59042 8.82814 8.56675 8.78941 8.54954 8.74852C8.53017 8.70872 8.51833 8.66675 8.51511 8.62372C8.51295 8.58068 8.51833 8.5398 8.53232 8.49891C8.54738 8.4591 8.57321 8.42359 8.60979 8.39132C8.67004 8.33752 8.73352 8.32031 8.79915 8.33967C8.86586 8.35689 8.93041 8.39024 8.99282 8.43866C9.0563 8.48815 9.11547 8.5441 9.16927 8.6065C9.22091 8.66998 9.2661 8.7227 9.30268 8.76574C9.4092 8.88624 9.51141 9.00997 9.60825 9.13586C9.62546 9.04118 9.63622 8.94219 9.63837 8.8389C9.63837 8.73346 9.62977 8.63125 9.61255 8.53334C9.6104 8.47632 9.59749 8.40208 9.57382 8.30955C9.55122 8.21809 9.53401 8.12664 9.52217 8.03411C9.50819 7.93943 9.50388 7.84905 9.50926 7.76298C9.51249 7.6769 9.53939 7.61235 9.59103 7.56931C9.64913 7.52089 9.70508 7.50045 9.75888 7.50906C9.81052 7.51766 9.86001 7.54779 9.9052 7.59944C9.97191 7.6769 10.0289 7.7662 10.0774 7.86626C10.1225 7.9674 10.1591 8.07284 10.1849 8.18474C10.2108 8.29664 10.228 8.41068 10.2366 8.52473C10.2473 8.63986 10.2506 8.74637 10.2452 8.84321C10.3765 8.88624 10.5056 8.93358 10.6325 8.98523C10.7584 9.03472 10.8864 9.08314 11.0156 9.13155C11.0586 9.14877 11.1027 9.16921 11.149 9.19181C11.1974 9.21548 11.2447 9.23915 11.291 9.26497C11.3362 9.29079 11.3792 9.31984 11.4201 9.35104C11.4631 9.38009 11.4987 9.41345 11.5277 9.45003Z" fill="#492D28"/>
  <path d="M12.7254 9.08286C12.5899 9.15817 12.4543 9.19045 12.3166 9.18184C12.1789 9.17108 12.0454 9.12589 11.9163 9.04843C11.7872 8.97096 11.6656 8.86659 11.5505 8.73426C11.4365 8.59976 11.331 8.45021 11.2363 8.28667C11.1503 8.12958 11.0803 7.96282 11.0255 7.78744C10.9684 7.60991 10.9394 7.43669 10.9394 7.26669C10.9394 7.09777 10.9717 6.94284 11.0341 6.80189C11.0943 6.65879 11.1998 6.54582 11.3482 6.4619C11.4978 6.37905 11.643 6.34893 11.7829 6.37152C11.9228 6.39519 12.0584 6.45221 12.1875 6.54367C12.3166 6.6362 12.4371 6.75347 12.549 6.89657C12.663 7.03752 12.7642 7.18492 12.8502 7.33985C12.9471 7.512 13.0224 7.68415 13.074 7.8563C13.1257 8.02845 13.1483 8.19414 13.1429 8.35123C13.1364 8.50616 13.1009 8.64818 13.0353 8.77729C12.9686 8.90425 12.8653 9.00539 12.7254 9.08286ZM11.727 7.21074C11.6872 7.23441 11.6613 7.27099 11.6495 7.32264C11.6387 7.37428 11.6387 7.43346 11.6495 7.49909C11.6581 7.56257 11.6786 7.63035 11.7098 7.70137C11.7388 7.77345 11.7722 7.84339 11.8087 7.91225C11.8518 7.98971 11.8991 8.06503 11.9508 8.13604C12.0046 8.20813 12.0584 8.26945 12.11 8.3211C12.1638 8.37059 12.2176 8.40502 12.2692 8.42439C12.3209 8.44483 12.3661 8.44483 12.407 8.42439C12.4586 8.39641 12.4844 8.35015 12.4844 8.28667C12.4866 8.22427 12.4769 8.15325 12.4543 8.07579C12.4339 7.99617 12.4048 7.91655 12.3682 7.83908C12.3338 7.76162 12.3015 7.70029 12.2735 7.65402C12.2413 7.59377 12.2025 7.53352 12.1573 7.47327C12.1111 7.41087 12.0637 7.35599 12.0153 7.30973C11.9658 7.26131 11.9163 7.22688 11.8647 7.20644C11.8152 7.18384 11.77 7.18492 11.727 7.21074Z" fill="#492D28"/>
  <path d="M14.1975 5.43156C14.2168 5.48321 14.2158 5.537 14.1932 5.5908C14.1727 5.64567 14.1437 5.69409 14.1071 5.73713C14.0727 5.77801 14.0382 5.82105 14.0038 5.86624C13.9694 5.90927 13.9371 5.95662 13.9091 6.00826C13.8833 6.0599 13.8661 6.1137 13.8575 6.1675C13.851 6.21914 13.8586 6.27509 13.879 6.33534C13.8962 6.38483 13.9231 6.42464 13.9608 6.45585C13.9974 6.48812 14.0404 6.51825 14.0899 6.54622C14.1415 6.57527 14.1942 6.60217 14.2491 6.62799C14.3061 6.65382 14.361 6.68717 14.4127 6.72698C14.4665 6.76786 14.517 6.81628 14.5633 6.8733C14.6085 6.92818 14.6472 6.99811 14.6795 7.08419C14.6989 7.14444 14.7096 7.2176 14.7096 7.30368C14.7118 7.3876 14.7053 7.47475 14.6881 7.5662C14.6709 7.65873 14.6451 7.75019 14.6106 7.84164C14.5784 7.93417 14.5396 8.02024 14.4944 8.09986C14.4482 8.17733 14.3933 8.24619 14.3309 8.30644C14.2706 8.36454 14.2072 8.40542 14.1415 8.43125C14.0662 8.45707 13.993 8.45922 13.922 8.43985C13.8499 8.41941 13.7994 8.36884 13.7714 8.28492C13.7542 8.23328 13.752 8.17948 13.7628 8.12138C13.7746 8.06436 13.7908 8.00841 13.8101 7.95354C13.8327 7.89651 13.8596 7.83949 13.8919 7.78139C13.9263 7.72436 13.9543 7.66949 13.978 7.61785C14.0038 7.56405 14.0221 7.50918 14.0339 7.45431C14.0447 7.40051 14.0404 7.34671 14.021 7.29507C13.9974 7.22944 13.9489 7.16918 13.8747 7.11431C13.7994 7.05729 13.7198 7.00026 13.6337 6.94216C13.5455 6.88191 13.4615 6.82058 13.3841 6.7571C13.3066 6.69147 13.2539 6.61723 13.2248 6.53331C13.1904 6.43002 13.1807 6.31275 13.1947 6.18041C13.2098 6.04914 13.2442 5.92111 13.298 5.79738C13.3496 5.67472 13.4207 5.56283 13.5089 5.46169C13.595 5.36163 13.6896 5.29277 13.7929 5.25511C13.8758 5.22714 13.9565 5.22714 14.0339 5.25511C14.1114 5.28416 14.1652 5.34334 14.1975 5.43156Z" fill="#492D28"/>
  <path d="M16.2837 7.83374C16.1309 7.85741 15.9922 7.84019 15.8663 7.78209C15.7393 7.72184 15.6296 7.63361 15.5349 7.51526C15.4402 7.39799 15.3606 7.25704 15.2982 7.0935C15.2358 6.92996 15.1895 6.75566 15.1605 6.56845C15.1325 6.39415 15.1217 6.21339 15.1303 6.02618C15.1389 5.84004 15.1734 5.6679 15.2336 5.50973C15.2906 5.35265 15.3724 5.21708 15.4789 5.10519C15.5844 4.99114 15.7221 4.92013 15.8921 4.8943C16.0578 4.86633 16.203 4.88785 16.3268 4.95886C16.4526 5.03095 16.5602 5.13101 16.6495 5.26012C16.741 5.38923 16.8152 5.53986 16.8733 5.71201C16.9304 5.88416 16.9734 6.05846 17.0024 6.23276C17.0336 6.42858 17.0433 6.61579 17.0326 6.79654C17.0207 6.9773 16.9852 7.13976 16.925 7.28286C16.8669 7.42704 16.7851 7.54862 16.6797 7.64868C16.5732 7.74659 16.4408 7.80791 16.2837 7.83374ZM15.9911 5.72922C15.9416 5.73783 15.9028 5.76365 15.8749 5.80669C15.8491 5.84973 15.8286 5.9046 15.8146 5.97023C15.8028 6.03371 15.7985 6.10365 15.8017 6.18111C15.8039 6.25858 15.8114 6.33605 15.8232 6.41351C15.8372 6.50282 15.8577 6.58997 15.8835 6.67604C15.9093 6.76211 15.9373 6.8385 15.9696 6.90414C16.004 6.96762 16.0406 7.01818 16.0815 7.05477C16.1245 7.09242 16.1686 7.10856 16.2149 7.10211C16.2719 7.0935 16.3117 7.05907 16.3354 6.99882C16.358 6.93857 16.372 6.86863 16.3784 6.78794C16.3838 6.70832 16.3827 6.62655 16.3741 6.54262C16.3655 6.45655 16.3569 6.38662 16.3483 6.33174C16.3397 6.26288 16.3235 6.19295 16.3009 6.12086C16.2805 6.04662 16.2547 5.97884 16.2235 5.91859C16.1944 5.85834 16.16 5.80992 16.1202 5.77226C16.0825 5.73568 16.0395 5.72062 15.9911 5.72922Z" fill="#492D28"/>
  <path d="M18.4697 7.69565C18.3148 7.6892 18.1813 7.64509 18.0694 7.56224C17.9575 7.47939 17.8672 7.3718 17.7983 7.23946C17.7295 7.10497 17.68 6.95111 17.652 6.77896C17.6229 6.60466 17.6133 6.42176 17.6219 6.23239C17.6305 6.05487 17.6574 5.87519 17.7036 5.69443C17.7488 5.51367 17.8166 5.35229 17.9059 5.20811C17.9941 5.06501 18.1017 4.94989 18.2287 4.86382C18.3578 4.77559 18.5084 4.7347 18.6806 4.74331C18.8495 4.74977 18.9872 4.79926 19.0937 4.89394C19.2024 4.98862 19.2874 5.10913 19.3476 5.25545C19.41 5.39963 19.452 5.56102 19.4725 5.74177C19.495 5.92038 19.5037 6.0979 19.4983 6.27543C19.4897 6.4734 19.4606 6.66061 19.4122 6.83491C19.3627 7.00706 19.296 7.15984 19.2099 7.29111C19.1239 7.42022 19.0184 7.52135 18.8958 7.59236C18.772 7.6666 18.63 7.70103 18.4697 7.69565ZM18.6074 5.57393C18.5579 5.57393 18.5149 5.59329 18.4783 5.62988C18.4439 5.66753 18.4137 5.71595 18.3879 5.7762C18.3621 5.83645 18.3417 5.90531 18.3277 5.98278C18.3158 6.06025 18.3083 6.13771 18.3061 6.21518C18.2997 6.30448 18.3018 6.39378 18.3105 6.48201C18.3191 6.57131 18.332 6.65201 18.3492 6.72302C18.3686 6.7951 18.3944 6.85428 18.4267 6.89947C18.4611 6.94251 18.5009 6.96402 18.5472 6.96402C18.6042 6.96725 18.6504 6.94251 18.6849 6.89086C18.7215 6.83706 18.7505 6.77036 18.7709 6.69289C18.7935 6.61542 18.8097 6.53581 18.8183 6.45188C18.829 6.36581 18.8366 6.29587 18.8398 6.241C18.842 6.17214 18.8409 6.10113 18.8355 6.02582C18.829 5.94835 18.8183 5.87734 18.8011 5.81063C18.7839 5.745 18.7591 5.69013 18.7279 5.64709C18.6956 5.6019 18.6558 5.57715 18.6074 5.57393Z" fill="#492D28"/>
  <path d="M22.367 6.65003C22.352 6.70167 22.3283 6.77806 22.2939 6.87812C22.2616 6.97603 22.225 7.08363 22.182 7.2009C22.1389 7.31603 22.0873 7.43223 22.0271 7.5495C21.9668 7.66355 21.9033 7.76576 21.8377 7.85507C21.7742 7.94329 21.7053 8.01215 21.6311 8.06164C21.5558 8.11329 21.4805 8.12835 21.403 8.10898C21.3277 8.08854 21.2664 8.04873 21.218 7.98848C21.1685 7.92823 21.1276 7.85937 21.0931 7.7819C21.0609 7.70659 21.0372 7.62912 21.02 7.5495C21.0028 7.46988 20.9899 7.3978 20.9812 7.33432C20.964 7.19445 20.9468 7.05673 20.9296 6.92116C20.9124 6.78667 20.8952 6.65003 20.878 6.51231L20.8521 6.6156C20.8231 6.72212 20.793 6.82648 20.7618 6.92977C20.7327 7.03306 20.6983 7.1342 20.6585 7.23103C20.6413 7.27407 20.6208 7.32356 20.5982 7.37735C20.5778 7.429 20.5552 7.48064 20.5294 7.53229C20.5035 7.58178 20.4713 7.62482 20.4347 7.6657C20.4002 7.70551 20.3615 7.73026 20.3185 7.73887C20.2894 7.74747 20.2647 7.74962 20.2453 7.74747C20.2281 7.74425 20.2087 7.74317 20.1894 7.74317L20.1765 7.73887C20.1216 7.7238 20.0785 7.6926 20.0473 7.64418C20.0183 7.59577 19.9979 7.53874 19.9871 7.47204C19.9753 7.40318 19.971 7.33001 19.9742 7.25255C19.9796 7.17293 19.9882 7.09546 20 7.02015C20.0108 6.94591 20.0226 6.87812 20.0344 6.81787C20.0484 6.75547 20.0613 6.7049 20.0732 6.66724C20.0872 6.61345 20.1119 6.53275 20.1463 6.42624C20.1808 6.31757 20.2238 6.20029 20.2754 6.07333C20.3271 5.94422 20.3841 5.81403 20.4476 5.68169C20.51 5.5472 20.5778 5.42993 20.6499 5.32879C20.7241 5.2255 20.7983 5.14696 20.8737 5.09209C20.9511 5.03506 21.0297 5.01677 21.1104 5.03614C21.1846 5.05658 21.2438 5.105 21.2868 5.18246C21.332 5.25778 21.3686 5.34063 21.3944 5.43208C21.4202 5.52461 21.4374 5.61929 21.446 5.71612C21.4547 5.81081 21.4611 5.8915 21.4676 5.95713C21.4762 6.08409 21.4848 6.20997 21.4934 6.33586C21.502 6.45959 21.5106 6.5844 21.5192 6.71028C21.516 6.71674 21.516 6.7318 21.5192 6.75762C21.5214 6.78129 21.5235 6.80819 21.5235 6.83939C21.5257 6.87167 21.5289 6.90717 21.5321 6.94698C21.5407 6.91255 21.5461 6.88996 21.5493 6.87812C21.5515 6.86414 21.5547 6.85123 21.5579 6.83939C21.5601 6.82863 21.5633 6.81572 21.5666 6.80066C21.5719 6.78344 21.5805 6.75654 21.5924 6.71889C21.6096 6.63604 21.6279 6.55427 21.6483 6.47358C21.6709 6.39073 21.6924 6.31004 21.7129 6.23257C21.7215 6.19814 21.7344 6.1508 21.7516 6.09055C21.771 6.02814 21.7946 5.96359 21.8205 5.89688C21.8463 5.83125 21.8743 5.76346 21.9065 5.69461C21.9377 5.62575 21.9722 5.56549 22.0098 5.51385C22.0464 5.46221 22.0884 5.42347 22.1346 5.39765C22.1798 5.37183 22.2304 5.36645 22.2853 5.38043C22.3455 5.39765 22.3896 5.43531 22.4187 5.49233C22.4499 5.55043 22.4714 5.61929 22.4832 5.69891C22.494 5.7796 22.4962 5.86675 22.4875 5.96144C22.4811 6.05612 22.4714 6.14865 22.4574 6.23687C22.4424 6.32295 22.4273 6.40364 22.4101 6.47788C22.3929 6.55319 22.3778 6.61022 22.367 6.65003Z" fill="#492D28"/>
  <path d="M25.0282 8.00377C25.0024 8.05004 24.9615 8.11782 24.9077 8.20605C24.8528 8.29212 24.7894 8.3868 24.7183 8.49009C24.6495 8.59338 24.572 8.69344 24.4859 8.79135C24.402 8.89141 24.3192 8.97749 24.2363 9.04958C24.1524 9.12059 24.0685 9.17115 23.9824 9.2002C23.8985 9.23141 23.821 9.22818 23.75 9.1916C23.6811 9.15394 23.6295 9.09907 23.5951 9.02806C23.5628 8.9592 23.5402 8.88388 23.5262 8.80426C23.5144 8.7268 23.509 8.6461 23.509 8.56326C23.5112 8.47933 23.5155 8.40402 23.5219 8.33516C23.5391 8.20067 23.5531 8.06618 23.5649 7.93061C23.5789 7.79289 23.5962 7.65517 23.6166 7.51746L23.5649 7.61214C23.5133 7.71005 23.4595 7.80473 23.4057 7.89618C23.3541 7.98871 23.296 8.07909 23.2336 8.16732C23.2045 8.20175 23.1733 8.24263 23.1389 8.28782C23.1066 8.33301 23.0722 8.3782 23.0356 8.42123C23.0012 8.46642 22.9603 8.50408 22.9151 8.53313C22.8721 8.5611 22.8269 8.57724 22.7817 8.58047C22.7526 8.58262 22.73 8.57832 22.7128 8.56756C22.6956 8.55895 22.6752 8.5525 22.6526 8.55035L22.644 8.54174C22.5923 8.51592 22.5579 8.47503 22.5407 8.42123C22.5235 8.36959 22.517 8.31149 22.5235 8.24478C22.5288 8.17592 22.5428 8.10491 22.5665 8.0296C22.5891 7.95213 22.6138 7.87789 22.6397 7.8058C22.6676 7.73479 22.6967 7.67024 22.7257 7.61214C22.7537 7.55511 22.7774 7.511 22.7946 7.47872C22.8226 7.43031 22.8656 7.35714 22.9237 7.25923C22.9839 7.1624 23.0539 7.05696 23.1346 6.94506C23.2142 6.83317 23.3003 6.72019 23.3928 6.60507C23.4843 6.49102 23.5779 6.39311 23.6725 6.31242C23.7694 6.22957 23.863 6.1704 23.9523 6.13597C24.0405 6.09938 24.1212 6.10046 24.1933 6.14027C24.2621 6.17793 24.3073 6.23818 24.331 6.32103C24.3536 6.40495 24.3665 6.49533 24.3697 6.59216C24.3751 6.68684 24.3697 6.78367 24.3525 6.88051C24.3375 6.97519 24.3267 7.05481 24.3181 7.11721C24.3009 7.24417 24.2804 7.36898 24.2578 7.49163C24.2342 7.61214 24.2116 7.73587 24.189 7.86175C24.1858 7.86498 24.1825 7.87897 24.1804 7.90479C24.1772 7.92846 24.1718 7.95428 24.1632 7.98226C24.1632 8.01453 24.1589 8.05112 24.1503 8.09415C24.1675 8.06618 24.1782 8.04466 24.1847 8.0296C24.1901 8.01561 24.1944 8.00377 24.1976 7.99517C24.203 7.98441 24.2105 7.9715 24.2191 7.95643C24.2277 7.93922 24.2406 7.91555 24.2578 7.88327C24.2944 7.81226 24.3332 7.7391 24.374 7.66378C24.4171 7.58632 24.4569 7.51208 24.4945 7.43999C24.5118 7.41201 24.5354 7.37005 24.5677 7.31518C24.5989 7.25816 24.6344 7.19898 24.6753 7.13873C24.7183 7.07848 24.7625 7.02145 24.8087 6.96658C24.8539 6.90956 24.9012 6.85899 24.9507 6.81595C24.9992 6.77291 25.0497 6.74494 25.1014 6.72988C25.153 6.71589 25.2014 6.72127 25.2477 6.74709C25.3015 6.77614 25.3381 6.82241 25.3553 6.88481C25.3725 6.94829 25.3768 7.02145 25.3682 7.1043C25.3596 7.18499 25.3392 7.27107 25.308 7.36252C25.2789 7.45182 25.2477 7.5379 25.2133 7.62074C25.181 7.70144 25.1466 7.77568 25.11 7.84454C25.0755 7.9134 25.0476 7.96719 25.0282 8.00377Z" fill="#492D28"/>
  <path d="M26.3764 10.5309C26.342 10.5707 26.2989 10.6138 26.2473 10.66C26.1956 10.7052 26.1375 10.7439 26.0751 10.7762C26.0149 10.8074 25.9525 10.8246 25.8901 10.8279C25.8266 10.8333 25.7674 10.8128 25.7136 10.7676C25.6448 10.7041 25.6146 10.6321 25.6232 10.5524C25.634 10.4717 25.6641 10.3889 25.7136 10.3028C25.762 10.2167 25.818 10.135 25.8815 10.0575C25.9439 9.98004 25.9934 9.91979 26.0278 9.87675C25.8729 9.77562 25.7201 9.67663 25.5716 9.5798C25.5286 9.61638 25.4726 9.66157 25.4038 9.71321C25.3349 9.76701 25.2596 9.81327 25.18 9.85093C25.1025 9.88751 25.0229 9.90903 24.9433 9.91549C24.8626 9.92409 24.7937 9.90257 24.7367 9.85093C24.6904 9.81004 24.6689 9.76163 24.6721 9.7046C24.6775 9.64973 24.6936 9.59486 24.7195 9.53676C24.7474 9.47974 24.7819 9.42702 24.8228 9.37752C24.8626 9.32588 24.897 9.28499 24.926 9.25272C25.0207 9.14405 25.124 9.04506 25.2359 8.95576C25.3478 8.86431 25.4608 8.77716 25.5759 8.69323C25.6362 8.6502 25.7072 8.6007 25.7911 8.5426C25.8772 8.48235 25.9675 8.4264 26.0622 8.37476C26.1591 8.32096 26.2613 8.27147 26.3678 8.22843C26.4732 8.18324 26.5765 8.15097 26.6777 8.13375C26.7777 8.11654 26.8756 8.11546 26.9703 8.12945C27.065 8.14451 27.1489 8.18432 27.2242 8.24995C27.2952 8.31343 27.3426 8.38552 27.3662 8.46514C27.3921 8.54583 27.4007 8.63083 27.3921 8.71906C27.3856 8.80836 27.3662 8.89874 27.3318 8.99019C27.2995 9.07949 27.263 9.16664 27.2199 9.25272C27.1769 9.33879 27.1306 9.42056 27.0822 9.49803C27.0359 9.57334 26.9961 9.64005 26.9617 9.7003C26.8756 9.84663 26.7831 9.98972 26.6863 10.1307C26.5916 10.2705 26.4883 10.404 26.3764 10.5309ZM26.4453 9.3517C26.4646 9.33233 26.4969 9.29468 26.5399 9.2398C26.583 9.18278 26.6217 9.1236 26.6561 9.06335C26.6927 9.0031 26.7185 8.945 26.7336 8.8869C26.7508 8.82988 26.7422 8.78576 26.7078 8.75349C26.6906 8.73627 26.6615 8.73412 26.6217 8.74488C26.5841 8.75349 26.541 8.77285 26.4926 8.80083C26.4431 8.82988 26.3915 8.86323 26.3377 8.89981C26.286 8.93747 26.2365 8.97513 26.1913 9.01171C26.1451 9.04614 26.1053 9.07949 26.0708 9.11069C26.0386 9.14297 26.0149 9.16664 25.9977 9.18386C26.1203 9.27639 26.2451 9.36031 26.3721 9.43777L26.4453 9.3517Z" fill="#492D28"/>
  <path d="M27.7601 12.2419C27.7224 12.2731 27.6762 12.2914 27.6224 12.2979C27.5729 12.3033 27.4976 12.2861 27.3943 12.2462C27.291 12.2086 27.1834 12.1602 27.0715 12.0999C26.9617 12.0397 26.8606 11.9773 26.7659 11.9149C26.6734 11.8514 26.6121 11.7987 26.5809 11.7556C26.5604 11.7298 26.5421 11.6921 26.5249 11.6437C26.5099 11.5942 26.4991 11.5426 26.4905 11.4888C26.4819 11.4339 26.4787 11.3812 26.4819 11.3296C26.484 11.2779 26.4916 11.236 26.5034 11.2047C26.5142 11.1897 26.5378 11.1639 26.5723 11.123C26.6088 11.0799 26.654 11.0358 26.7057 10.9896C26.7595 10.9411 26.8176 10.8927 26.8778 10.8432C26.9402 10.7916 26.9994 10.7432 27.0543 10.6969C27.1081 10.6485 27.1576 10.6065 27.2006 10.5721C27.2458 10.5355 27.2791 10.5097 27.2996 10.4946C27.3771 10.4376 27.4642 10.3763 27.5621 10.3096C27.6622 10.2439 27.7665 10.1805 27.8763 10.1202C27.9849 10.06 28.0958 10.0105 28.2077 9.96958C28.3196 9.92655 28.4229 9.90503 28.5175 9.90503C28.5487 9.90503 28.5907 9.92009 28.6423 9.94807C28.694 9.97712 28.751 10.0126 28.8145 10.0557C28.8769 10.0987 28.9414 10.1493 29.0082 10.2063C29.0738 10.2612 29.1351 10.316 29.1932 10.3698C29.2502 10.4215 29.3019 10.471 29.3481 10.5162C29.3933 10.5592 29.4267 10.5958 29.4471 10.6237C29.4697 10.6528 29.4837 10.6862 29.4902 10.7227C29.4955 10.7604 29.4945 10.798 29.4859 10.8346C29.4794 10.8691 29.4665 10.9024 29.4471 10.9336C29.4299 10.9659 29.4052 10.9928 29.374 11.0154C29.3481 11.0358 29.3223 11.0498 29.2965 11.0584C29.2728 11.0649 29.247 11.067 29.219 11.067C29.1728 11.067 29.1071 11.0498 29.0211 11.0154C28.9371 10.9788 28.8489 10.9358 28.7542 10.8863C28.6617 10.8346 28.5756 10.7851 28.496 10.7356C28.4185 10.6872 28.3604 10.6528 28.3239 10.6324C28.2722 10.6582 28.2173 10.6862 28.1603 10.7141C28.1055 10.7399 28.0549 10.7701 28.0097 10.8045C28.0872 10.8454 28.1689 10.8938 28.255 10.9508C28.3432 11.0089 28.4153 11.0735 28.4702 11.1445C28.5789 11.2876 28.5616 11.4124 28.4185 11.5189C28.3841 11.5447 28.3475 11.5598 28.311 11.5663C28.2765 11.5716 28.2399 11.5706 28.2034 11.562C28.1657 11.5555 28.128 11.5458 28.0915 11.5318C28.057 11.5168 28.0226 11.5017 27.9882 11.4845C27.9043 11.4468 27.8246 11.4006 27.7472 11.3468C27.6697 11.2951 27.5901 11.2435 27.5105 11.1918C27.49 11.2004 27.4685 11.2091 27.4459 11.2177C27.4255 11.2284 27.4072 11.2403 27.39 11.2521C27.3609 11.2747 27.334 11.2994 27.3082 11.3253C27.2824 11.3511 27.2565 11.3747 27.2307 11.3984C27.2587 11.4178 27.3017 11.4479 27.3598 11.4888C27.4201 11.5286 27.4803 11.5716 27.5406 11.6179C27.603 11.6631 27.6622 11.7083 27.717 11.7513C27.7708 11.7944 27.8085 11.8299 27.8289 11.8589C27.8515 11.8869 27.8655 11.9202 27.872 11.9579C27.8774 11.9945 27.8774 12.0289 27.872 12.0612C27.8655 12.0956 27.8526 12.1279 27.8332 12.1602C27.8128 12.1946 27.7881 12.2215 27.7601 12.2419Z" fill="#492D28"/>
</svg>